<?xml version="1.0" encoding="UTF-8"?><svg xmlns="http://www.w3.org/2000/svg" viewBox="0 0 316.59 151.6"><g id="a"/><g id="b"><g id="c"><g><path d="M24.8,151.6c-16.6,0-24.8-7.6-24.8-23v-39H24.8v37.2c0,2.6,.8,4,2.6,4s2.8-1.4,2.8-4.2v-29c0-4.8-.6-6.8-4.4-10.2l-13-11.2C4.2,69,.6,60.8,.6,49.6V23.2C.6,9.4,7.8,0,26,0h5.8c18.2,0,24,9.2,24,21.2V54H31.4V22.4c0-2.2-.8-3.2-2.6-3.2s-2.6,1-2.6,3.2v25.4c0,4,.8,5.4,4,8.4l12.8,11.2c10,8.4,13.8,15,13.8,28.2v29.6c0,16-7.8,26.4-26.2,26.4h-5.8Z"/><path d="M60.4,1.4h25.4V59.2h5.4V1.4h25.2V150.2h-25.2V85.4h-5.4v64.8h-25.4V1.4Z"/><path d="M163.19,1.4V24.2h-18V60.4h15.2v23.6h-15.2v43h18.6v23.2h-43.4V1.4h42.8Z"/><path d="M165.19,1.4h27.2l5,101.4L202.59,1.4h24.6l-13.4,148.8h-33.8L165.19,1.4Z"/><path d="M227.39,1.4h27.2l5,101.4L264.79,1.4h24.6l-13.4,148.8h-33.8L227.39,1.4Z"/><path d="M316.59,150.2h-25.4V1.4h25.4V150.2Z"/></g></g></g></svg>